<svg width="812" height="354" viewBox="0 0 812 354" fill="none" xmlns="http://www.w3.org/2000/svg">
<path d="M361.528 128.857C365.892 84.7634 409.749 54.4535 430.469 44.6586C392.042 77.6599 378.669 115.106 376.785 128.292C375.429 163.101 401.493 165.006 412.386 163.327C425.791 161.262 437.25 139.594 441.771 128.292L451.942 147.505C465.913 166.701 481.327 165.588 490.934 161.632C515.797 147.166 506.976 117.35 499.253 104.542C487.047 80.1297 464.626 54.2486 452.916 49.7279L453.638 44.6586C477.78 51.4232 507.164 87.0238 514.102 105.123C533.089 145.81 510.335 167.66 496.584 173.499C468.556 186.157 448.363 168.225 441.771 157.677C434.99 172.143 416.185 179.699 406.735 178.02C368.761 175.759 360.774 144.303 361.528 128.857Z" fill="url(#paint0_linear_2417_478)"/>
<path d="M314.624 79.1297C323.665 94.0481 347.399 121.888 358.136 133.943C317.901 113.6 297.671 78.7531 292.586 63.8726C282.188 24.0903 307.121 6.21599 321.248 2.26036C346.565 -4.52072 364.54 12.2608 370.003 21.4904C379.949 1.14718 398.823 0.0158905 406.734 0.0163287C425.947 -0.548584 438.944 13.681 443.465 21.49C453.41 38.6687 448.174 61.8001 444.03 71.2183C429.616 103.977 402.966 124.902 390.346 133.943H380.74L414.645 94.9521C444.03 56.526 435.93 31.8504 428.207 24.3159C418.262 12.562 402.998 13.7676 396.405 15.8397C383.747 20.8125 373.393 40.3098 370.003 50.293C360.509 24.0728 346.834 16.9698 341.183 15.8397C325.813 10.8669 313.117 22.0559 308.973 27.7068C297.515 46.9025 308.408 70.0883 314.624 79.1297Z" fill="url(#paint1_linear_2417_478)"/>
<path d="M40.4653 268.803C40.4653 263.392 39.7514 259.56 38.3237 257.305C36.9711 255.051 34.604 253.924 31.2225 253.924C30.1705 253.924 29.0809 253.999 27.9537 254.149C26.8266 254.225 25.737 254.337 24.685 254.488V300.25H7.89017V242.99C9.31791 242.615 10.9711 242.239 12.8497 241.863C14.8035 241.412 16.8324 241.037 18.9364 240.736C21.1156 240.36 23.3324 240.097 25.5867 239.947C27.841 239.722 30.0578 239.609 32.237 239.609C36.5202 239.609 39.9769 240.172 42.6069 241.3C45.3121 242.352 47.5289 243.629 49.2572 245.132C51.6618 243.404 54.4046 242.051 57.4855 241.074C60.6416 240.097 63.5346 239.609 66.1647 239.609C70.8988 239.609 74.7687 240.285 77.7745 241.638C80.8554 242.915 83.2976 244.756 85.1011 247.161C86.9046 249.566 88.1445 252.421 88.8208 255.727C89.4971 259.034 89.8352 262.716 89.8352 266.774V300.25H73.0404V268.803C73.0404 263.392 72.3265 259.56 70.8988 257.305C69.5462 255.051 67.1792 253.924 63.7977 253.924C62.8959 253.924 61.6185 254.149 59.9653 254.6C58.3873 255.051 57.0722 255.615 56.0202 256.291C56.5462 258.019 56.8844 259.86 57.0347 261.814C57.1849 263.693 57.2601 265.722 57.2601 267.901V300.25H40.4653V268.803ZM127.742 288.528C129.396 288.528 130.974 288.49 132.476 288.415C133.979 288.34 135.182 288.227 136.083 288.077V275.34C135.407 275.19 134.393 275.04 133.04 274.889C131.687 274.739 130.448 274.664 129.32 274.664C127.742 274.664 126.239 274.777 124.812 275.002C123.459 275.152 122.257 275.49 121.205 276.016C120.153 276.542 119.326 277.256 118.725 278.158C118.124 279.06 117.823 280.187 117.823 281.54C117.823 284.17 118.687 286.011 120.416 287.063C122.219 288.04 124.661 288.528 127.742 288.528ZM126.39 239.383C131.349 239.383 135.482 239.947 138.789 241.074C142.095 242.201 144.725 243.817 146.679 245.921C148.708 248.025 150.135 250.58 150.962 253.586C151.789 256.592 152.202 259.935 152.202 263.618V298.56C149.797 299.086 146.453 299.687 142.17 300.363C137.887 301.115 132.702 301.49 126.615 301.49C122.783 301.49 119.289 301.152 116.133 300.476C113.052 299.8 110.384 298.71 108.13 297.207C105.875 295.629 104.147 293.6 102.945 291.12C101.742 288.641 101.141 285.597 101.141 281.99C101.141 278.534 101.818 275.603 103.17 273.198C104.598 270.794 106.476 268.878 108.806 267.45C111.135 266.022 113.803 265.008 116.809 264.407C119.815 263.73 122.933 263.392 126.164 263.392C128.344 263.392 130.26 263.505 131.913 263.73C133.641 263.881 135.031 264.106 136.083 264.407V262.829C136.083 259.973 135.219 257.681 133.491 255.953C131.763 254.225 128.757 253.36 124.474 253.36C121.618 253.36 118.8 253.586 116.02 254.037C113.239 254.412 110.835 254.976 108.806 255.727L106.664 242.201C107.641 241.901 108.844 241.6 110.271 241.3C111.774 240.924 113.39 240.623 115.118 240.398C116.846 240.097 118.65 239.872 120.528 239.722C122.482 239.496 124.436 239.383 126.39 239.383ZM166.825 226.196L183.62 223.49V240.962H203.796V254.938H183.62V275.791C183.62 279.323 184.221 282.141 185.423 284.245C186.701 286.349 189.218 287.401 192.975 287.401C194.779 287.401 196.62 287.25 198.499 286.95C200.452 286.574 202.218 286.086 203.796 285.485L206.163 298.56C204.134 299.386 201.88 300.1 199.4 300.701C196.92 301.303 193.877 301.603 190.27 301.603C185.686 301.603 181.892 301.002 178.886 299.8C175.88 298.522 173.475 296.794 171.672 294.615C169.868 292.36 168.591 289.655 167.84 286.499C167.163 283.343 166.825 279.849 166.825 276.016V226.196ZM212.453 270.606C212.453 266.323 213.13 262.303 214.482 258.545C215.91 254.713 217.939 251.407 220.569 248.626C223.199 245.771 226.393 243.516 230.15 241.863C233.907 240.21 238.19 239.383 243 239.383C246.156 239.383 249.049 239.684 251.679 240.285C254.309 240.811 256.864 241.6 259.344 242.652L255.849 256.066C254.271 255.464 252.543 254.938 250.664 254.488C248.786 254.037 246.682 253.811 244.352 253.811C239.393 253.811 235.673 255.352 233.193 258.433C230.789 261.514 229.586 265.571 229.586 270.606C229.586 275.941 230.713 280.074 232.968 283.005C235.297 285.935 239.318 287.401 245.028 287.401C247.057 287.401 249.237 287.213 251.566 286.837C253.896 286.461 256.037 285.86 257.991 285.034L260.358 298.785C258.404 299.612 255.962 300.326 253.031 300.927C250.101 301.528 246.87 301.829 243.338 301.829C237.927 301.829 233.268 301.04 229.361 299.461C225.453 297.808 222.222 295.592 219.667 292.811C217.187 290.031 215.346 286.762 214.144 283.005C213.017 279.172 212.453 275.04 212.453 270.606ZM271.63 300.25V215.488L288.424 212.782V241.187C289.552 240.811 290.979 240.473 292.708 240.172C294.511 239.797 296.239 239.609 297.893 239.609C302.702 239.609 306.685 240.285 309.841 241.638C313.072 242.915 315.627 244.756 317.505 247.161C319.459 249.566 320.812 252.421 321.563 255.727C322.39 259.034 322.803 262.716 322.803 266.774V300.25H306.008V268.803C306.008 263.392 305.294 259.56 303.867 257.305C302.514 255.051 299.959 253.924 296.202 253.924C294.699 253.924 293.271 254.074 291.919 254.375C290.641 254.6 289.476 254.863 288.424 255.164V300.25H271.63Z" fill="#BF1013"/>
<path d="M398.733 268.495C398.733 263.085 398.019 259.252 396.591 256.998C395.239 254.743 392.872 253.616 389.49 253.616C388.438 253.616 387.348 253.691 386.221 253.842C385.094 253.917 384.005 254.03 382.953 254.18V299.943H366.158V242.683C367.585 242.307 369.239 241.931 371.117 241.556C373.071 241.105 375.1 240.729 377.204 240.428C379.383 240.053 381.6 239.79 383.854 239.639C386.109 239.414 388.325 239.301 390.505 239.301C394.788 239.301 398.244 239.865 400.874 240.992C403.58 242.044 405.796 243.322 407.525 244.824C409.929 243.096 412.672 241.743 415.753 240.767C418.909 239.79 421.802 239.301 424.432 239.301C429.166 239.301 433.036 239.978 436.042 241.33C439.123 242.608 441.565 244.449 443.369 246.853C445.172 249.258 446.412 252.113 447.088 255.42C447.765 258.726 448.103 262.408 448.103 266.466V299.943H431.308V268.495C431.308 263.085 430.594 259.252 429.166 256.998C427.814 254.743 425.447 253.616 422.065 253.616C421.163 253.616 419.886 253.842 418.233 254.293C416.655 254.743 415.34 255.307 414.288 255.983C414.814 257.712 415.152 259.553 415.302 261.506C415.453 263.385 415.528 265.414 415.528 267.593V299.943H398.733V268.495ZM486.01 288.22C487.663 288.22 489.241 288.183 490.744 288.108C492.247 288.032 493.449 287.92 494.351 287.769V275.032C493.675 274.882 492.66 274.732 491.308 274.582C489.955 274.431 488.715 274.356 487.588 274.356C486.01 274.356 484.507 274.469 483.079 274.694C481.727 274.845 480.524 275.183 479.472 275.709C478.42 276.235 477.594 276.949 476.993 277.85C476.391 278.752 476.091 279.879 476.091 281.232C476.091 283.862 476.955 285.703 478.683 286.755C480.487 287.732 482.929 288.22 486.01 288.22ZM484.657 239.076C489.617 239.076 493.75 239.639 497.056 240.767C500.363 241.894 502.993 243.509 504.946 245.613C506.975 247.717 508.403 250.272 509.23 253.278C510.056 256.284 510.469 259.628 510.469 263.31V298.252C508.065 298.778 504.721 299.379 500.438 300.056C496.154 300.807 490.969 301.183 484.883 301.183C481.05 301.183 477.556 300.845 474.4 300.168C471.319 299.492 468.652 298.402 466.397 296.9C464.143 295.321 462.415 293.293 461.212 290.813C460.01 288.333 459.409 285.29 459.409 281.683C459.409 278.226 460.085 275.295 461.438 272.891C462.865 270.486 464.744 268.57 467.074 267.142C469.403 265.715 472.071 264.7 475.076 264.099C478.082 263.423 481.201 263.085 484.432 263.085C486.611 263.085 488.527 263.197 490.18 263.423C491.909 263.573 493.299 263.798 494.351 264.099V262.521C494.351 259.665 493.487 257.374 491.758 255.645C490.03 253.917 487.024 253.053 482.741 253.053C479.886 253.053 477.068 253.278 474.287 253.729C471.507 254.105 469.102 254.668 467.074 255.42L464.932 241.894C465.909 241.593 467.111 241.293 468.539 240.992C470.042 240.616 471.657 240.316 473.386 240.09C475.114 239.79 476.917 239.564 478.796 239.414C480.75 239.189 482.704 239.076 484.657 239.076ZM525.093 225.888L541.887 223.183V240.654H562.064V254.631H541.887V275.483C541.887 279.015 542.489 281.833 543.691 283.937C544.968 286.041 547.486 287.093 551.243 287.093C553.046 287.093 554.887 286.943 556.766 286.642C558.72 286.267 560.486 285.778 562.064 285.177L564.431 298.252C562.402 299.079 560.148 299.793 557.668 300.394C555.188 300.995 552.145 301.295 548.538 301.295C543.954 301.295 540.159 300.694 537.153 299.492C534.148 298.215 531.743 296.486 529.94 294.307C528.136 292.053 526.859 289.348 526.107 286.191C525.431 283.035 525.093 279.541 525.093 275.709V225.888ZM575.177 225.888L591.972 223.183V240.654H612.148V254.631H591.972V275.483C591.972 279.015 592.573 281.833 593.775 283.937C595.052 286.041 597.57 287.093 601.327 287.093C603.131 287.093 604.972 286.943 606.85 286.642C608.804 286.267 610.57 285.778 612.148 285.177L614.515 298.252C612.486 299.079 610.232 299.793 607.752 300.394C605.272 300.995 602.229 301.295 598.622 301.295C594.038 301.295 590.243 300.694 587.237 299.492C584.232 298.215 581.827 296.486 580.024 294.307C578.22 292.053 576.943 289.348 576.191 286.191C575.515 283.035 575.177 279.541 575.177 275.709V225.888ZM620.805 270.749C620.805 265.489 621.594 260.905 623.172 256.998C624.825 253.015 626.967 249.709 629.597 247.079C632.227 244.449 635.233 242.457 638.614 241.105C642.071 239.752 645.603 239.076 649.21 239.076C657.626 239.076 664.276 241.668 669.16 246.853C674.045 251.963 676.487 259.515 676.487 269.509C676.487 270.486 676.449 271.576 676.374 272.778C676.299 273.905 676.224 274.92 676.149 275.821H638.051C638.426 279.278 640.042 282.021 642.897 284.05C645.753 286.079 649.585 287.093 654.395 287.093C657.476 287.093 660.481 286.83 663.412 286.304C666.418 285.703 668.86 284.989 670.739 284.163L672.993 297.801C672.091 298.252 670.889 298.703 669.386 299.154C667.883 299.605 666.192 299.98 664.314 300.281C662.51 300.657 660.556 300.957 658.452 301.183C656.348 301.408 654.244 301.521 652.14 301.521C646.805 301.521 642.146 300.732 638.163 299.154C634.256 297.576 630.987 295.434 628.357 292.729C625.802 289.949 623.886 286.68 622.608 282.923C621.406 279.165 620.805 275.108 620.805 270.749ZM660.256 264.324C660.181 262.897 659.918 261.506 659.467 260.154C659.091 258.801 658.452 257.599 657.551 256.547C656.724 255.495 655.634 254.631 654.282 253.954C653.004 253.278 651.389 252.94 649.435 252.94C647.556 252.94 645.941 253.278 644.588 253.954C643.236 254.556 642.108 255.382 641.207 256.434C640.305 257.486 639.591 258.726 639.065 260.154C638.614 261.506 638.276 262.897 638.051 264.324H660.256ZM725.179 255.532C723.676 255.157 721.91 254.781 719.881 254.405C717.852 253.954 715.673 253.729 713.344 253.729C712.292 253.729 711.014 253.842 709.511 254.067C708.084 254.217 706.994 254.405 706.243 254.631V299.943H689.448V243.81C692.454 242.758 695.985 241.781 700.043 240.879C704.176 239.902 708.76 239.414 713.795 239.414C714.696 239.414 715.786 239.489 717.063 239.639C718.341 239.715 719.618 239.865 720.896 240.09C722.173 240.241 723.451 240.466 724.728 240.767C726.006 240.992 727.095 241.293 727.997 241.668L725.179 255.532ZM754.02 287.882C757.101 287.882 759.28 287.582 760.558 286.98C761.835 286.379 762.474 285.215 762.474 283.486C762.474 282.134 761.647 280.969 759.994 279.992C758.341 278.94 755.824 277.775 752.442 276.498C749.812 275.521 747.408 274.506 745.228 273.454C743.124 272.402 741.321 271.163 739.818 269.735C738.315 268.232 737.15 266.466 736.324 264.437C735.497 262.408 735.084 259.966 735.084 257.111C735.084 251.55 737.15 247.154 741.283 243.923C745.416 240.691 751.09 239.076 758.304 239.076C761.91 239.076 765.367 239.414 768.673 240.09C771.98 240.691 774.61 241.368 776.564 242.119L773.633 255.194C771.679 254.518 769.538 253.917 767.208 253.391C764.954 252.865 762.399 252.602 759.543 252.602C754.283 252.602 751.653 254.067 751.653 256.998C751.653 257.674 751.766 258.275 751.991 258.801C752.217 259.327 752.668 259.853 753.344 260.379C754.02 260.83 754.922 261.356 756.049 261.957C757.252 262.483 758.754 263.085 760.558 263.761C764.24 265.113 767.283 266.466 769.688 267.819C772.093 269.096 773.971 270.524 775.324 272.102C776.752 273.605 777.728 275.295 778.254 277.174C778.856 279.053 779.156 281.232 779.156 283.712C779.156 289.573 776.939 294.006 772.506 297.012C768.147 300.018 761.948 301.521 753.908 301.521C748.647 301.521 744.252 301.07 740.72 300.168C737.263 299.267 734.858 298.515 733.506 297.914L736.324 284.275C739.179 285.402 742.11 286.304 745.116 286.98C748.121 287.582 751.09 287.882 754.02 287.882ZM808.164 291.038C808.164 294.42 807.074 297.012 804.895 298.816C802.791 300.544 800.386 301.408 797.681 301.408C794.976 301.408 792.534 300.544 790.355 298.816C788.251 297.012 787.199 294.42 787.199 291.038C787.199 287.657 788.251 285.102 790.355 283.374C792.534 281.57 794.976 280.668 797.681 280.668C800.386 280.668 802.791 281.57 804.895 283.374C807.074 285.102 808.164 287.657 808.164 291.038Z" fill="#BF1013"/>
<defs>
<linearGradient id="paint0_linear_2417_478" x1="441.416" y1="44.6586" x2="441.416" y2="178.25" gradientUnits="userSpaceOnUse">
<stop stop-color="#BF1013"/>
<stop offset="1" stop-color="#E63C40"/>
</linearGradient>
<linearGradient id="paint1_linear_2417_478" x1="369.642" y1="0" x2="369.642" y2="133.943" gradientUnits="userSpaceOnUse">
<stop stop-color="#BF1013"/>
<stop offset="1" stop-color="#E63C40"/>
</linearGradient>
</defs>
</svg>
