<svg width="991" height="321" viewBox="0 0 991 321" fill="none" xmlns="http://www.w3.org/2000/svg">
<path d="M68.172 152.02C68.172 142.905 66.9693 136.448 64.564 132.65C62.2853 128.852 58.2975 126.954 52.6007 126.954C50.8283 126.954 48.9927 127.08 47.0937 127.333C45.1948 127.46 43.3591 127.65 41.5868 127.903V205H13.2926V108.534C15.6979 107.901 18.483 107.268 21.6479 106.635C24.9394 105.875 28.3575 105.242 31.9022 104.736C35.5735 104.103 39.3081 103.66 43.106 103.407C46.9038 103.027 50.6384 102.837 54.3097 102.837C61.5257 102.837 67.3491 103.786 71.78 105.685C76.3374 107.458 80.072 109.61 82.9837 112.142C87.0348 109.23 91.6555 106.951 96.846 105.306C102.163 103.66 107.037 102.837 111.468 102.837C119.443 102.837 125.963 103.976 131.027 106.255C136.217 108.407 140.332 111.509 143.37 115.56C146.408 119.611 148.497 124.422 149.637 129.992C150.776 135.562 151.346 141.765 151.346 148.601V205H123.051V152.02C123.051 142.905 121.849 136.448 119.443 132.65C117.165 128.852 113.177 126.954 107.48 126.954C105.961 126.954 103.809 127.333 101.024 128.093C98.3651 128.852 96.1497 129.802 94.3773 130.941C95.2635 133.853 95.8332 136.955 96.0864 140.246C96.3396 143.411 96.4662 146.829 96.4662 150.5V205H68.172V152.02ZM215.208 185.251C217.993 185.251 220.651 185.188 223.183 185.061C225.715 184.935 227.741 184.745 229.26 184.491V163.033C228.121 162.78 226.412 162.527 224.133 162.274C221.854 162.021 219.765 161.894 217.866 161.894C215.208 161.894 212.676 162.084 210.271 162.464C207.992 162.717 205.966 163.287 204.194 164.173C202.422 165.059 201.029 166.262 200.016 167.781C199.004 169.3 198.497 171.199 198.497 173.478C198.497 177.908 199.953 181.01 202.865 182.782C205.903 184.428 210.017 185.251 215.208 185.251ZM212.929 102.457C221.284 102.457 228.247 103.407 233.817 105.306C239.388 107.205 243.819 109.926 247.11 113.471C250.528 117.016 252.933 121.32 254.326 126.384C255.719 131.448 256.415 137.081 256.415 143.284V202.152C252.364 203.038 246.73 204.051 239.514 205.19C232.298 206.456 223.563 207.089 213.309 207.089C206.852 207.089 200.966 206.519 195.649 205.38C190.458 204.24 185.964 202.405 182.166 199.873C178.368 197.214 175.457 193.796 173.431 189.619C171.406 185.441 170.393 180.314 170.393 174.237C170.393 168.414 171.532 163.476 173.811 159.425C176.216 155.374 179.381 152.146 183.306 149.741C187.23 147.336 191.724 145.626 196.788 144.614C201.852 143.474 207.106 142.905 212.549 142.905C216.221 142.905 219.449 143.095 222.234 143.474C225.146 143.728 227.488 144.107 229.26 144.614V141.955C229.26 137.145 227.804 133.283 224.892 130.372C221.981 127.46 216.917 126.004 209.701 126.004C204.89 126.004 200.143 126.384 195.459 127.143C190.775 127.776 186.724 128.726 183.306 129.992L179.698 107.205C181.343 106.698 183.369 106.192 185.774 105.685C188.306 105.052 191.028 104.546 193.94 104.166C196.851 103.66 199.89 103.28 203.055 103.027C206.346 102.647 209.638 102.457 212.929 102.457ZM281.051 80.2396L309.345 75.6821V105.116H343.336V128.663H309.345V163.793C309.345 169.743 310.358 174.49 312.383 178.035C314.535 181.58 318.776 183.352 325.106 183.352C328.144 183.352 331.246 183.099 334.411 182.592C337.702 181.96 340.677 181.137 343.336 180.124L347.324 202.152C343.906 203.544 340.108 204.747 335.93 205.76C331.752 206.772 326.625 207.279 320.549 207.279C312.826 207.279 306.433 206.266 301.369 204.24C296.305 202.088 292.254 199.177 289.216 195.505C286.178 191.707 284.026 187.15 282.76 181.833C281.62 176.516 281.051 170.629 281.051 164.173V80.2396ZM357.921 155.058C357.921 147.842 359.06 141.069 361.339 134.739C363.744 128.283 367.162 122.713 371.593 118.029C376.024 113.218 381.404 109.42 387.734 106.635C394.064 103.85 401.28 102.457 409.382 102.457C414.699 102.457 419.573 102.964 424.004 103.976C428.435 104.863 432.739 106.192 436.917 107.964L431.03 130.562C428.371 129.549 425.46 128.663 422.295 127.903C419.13 127.143 415.585 126.764 411.661 126.764C403.305 126.764 397.039 129.359 392.861 134.549C388.81 139.74 386.785 146.576 386.785 155.058C386.785 164.046 388.683 171.009 392.481 175.946C396.406 180.883 403.179 183.352 412.8 183.352C416.218 183.352 419.889 183.036 423.814 182.403C427.738 181.77 431.346 180.757 434.638 179.364L438.626 202.531C435.334 203.924 431.22 205.127 426.282 206.139C421.345 207.152 415.902 207.659 409.952 207.659C400.837 207.659 392.988 206.329 386.405 203.671C379.822 200.886 374.378 197.151 370.074 192.467C365.896 187.783 362.795 182.276 360.769 175.946C358.87 169.49 357.921 162.527 357.921 155.058ZM457.615 205V62.1997L485.909 57.6422V105.496C487.808 104.863 490.213 104.293 493.125 103.786C496.163 103.153 499.075 102.837 501.86 102.837C509.962 102.837 516.672 103.976 521.989 106.255C527.433 108.407 531.737 111.509 534.902 115.56C538.193 119.611 540.472 124.422 541.738 129.992C543.131 135.562 543.827 141.765 543.827 148.601V205H515.533V152.02C515.533 142.905 514.33 136.448 511.925 132.65C509.646 128.852 505.342 126.954 499.012 126.954C496.48 126.954 494.075 127.207 491.796 127.713C489.644 128.093 487.682 128.536 485.909 129.042V205H457.615Z" fill="#BF1013"/>
<path d="M411.36 255.199C411.36 247.664 410.366 242.326 408.377 239.186C406.493 236.046 403.197 234.476 398.487 234.476C397.022 234.476 395.504 234.581 393.934 234.79C392.364 234.895 390.846 235.052 389.381 235.261V299H365.989V219.248C367.978 218.725 370.281 218.201 372.897 217.678C375.618 217.05 378.444 216.527 381.375 216.108C384.41 215.585 387.497 215.219 390.637 215.009C393.777 214.695 396.865 214.538 399.9 214.538C405.865 214.538 410.68 215.323 414.343 216.893C418.111 218.358 421.198 220.138 423.605 222.231C426.955 219.824 430.775 217.94 435.066 216.579C439.462 215.219 443.491 214.538 447.154 214.538C453.748 214.538 459.138 215.48 463.324 217.364C467.616 219.143 471.017 221.708 473.529 225.057C476.041 228.406 477.768 232.383 478.71 236.988C479.652 241.593 480.123 246.722 480.123 252.373V299H456.731V255.199C456.731 247.664 455.736 242.326 453.748 239.186C451.864 236.046 448.567 234.476 443.857 234.476C442.602 234.476 440.822 234.79 438.52 235.418C436.322 236.046 434.49 236.831 433.025 237.773C433.758 240.18 434.229 242.745 434.438 245.466C434.647 248.082 434.752 250.908 434.752 253.943V299H411.36V255.199ZM532.92 282.673C535.222 282.673 537.42 282.621 539.513 282.516C541.607 282.411 543.281 282.254 544.537 282.045V264.305C543.595 264.095 542.182 263.886 540.298 263.677C538.414 263.467 536.687 263.363 535.118 263.363C532.92 263.363 530.826 263.52 528.838 263.834C526.954 264.043 525.279 264.514 523.814 265.247C522.349 265.979 521.198 266.974 520.36 268.23C519.523 269.486 519.104 271.055 519.104 272.939C519.104 276.602 520.308 279.167 522.715 280.632C525.227 281.993 528.629 282.673 532.92 282.673ZM531.036 214.224C537.943 214.224 543.7 215.009 548.305 216.579C552.91 218.149 556.573 220.399 559.294 223.33C562.12 226.26 564.109 229.819 565.26 234.005C566.411 238.192 566.987 242.849 566.987 247.978V296.645C563.638 297.378 558.98 298.215 553.015 299.157C547.049 300.204 539.827 300.727 531.35 300.727C526.012 300.727 521.145 300.256 516.75 299.314C512.458 298.372 508.743 296.854 505.603 294.761C502.463 292.563 500.056 289.737 498.381 286.284C496.707 282.83 495.87 278.591 495.87 273.567C495.87 268.753 496.812 264.671 498.695 261.322C500.684 257.973 503.301 255.304 506.545 253.315C509.79 251.327 513.505 249.914 517.691 249.077C521.878 248.135 526.221 247.664 530.722 247.664C533.757 247.664 536.426 247.821 538.728 248.135C541.136 248.344 543.072 248.658 544.537 249.077V246.879C544.537 242.902 543.333 239.709 540.926 237.302C538.519 234.895 534.333 233.691 528.367 233.691C524.39 233.691 520.465 234.005 516.593 234.633C512.72 235.157 509.371 235.942 506.545 236.988L503.562 218.149C504.923 217.731 506.597 217.312 508.586 216.893C510.679 216.37 512.929 215.951 515.337 215.637C517.744 215.219 520.256 214.905 522.872 214.695C525.593 214.381 528.315 214.224 531.036 214.224ZM587.354 195.856L610.746 192.088V216.422H638.848V235.889H610.746V264.933C610.746 269.852 611.583 273.777 613.258 276.707C615.037 279.638 618.543 281.103 623.776 281.103C626.288 281.103 628.852 280.894 631.469 280.475C634.19 279.952 636.65 279.271 638.848 278.434L642.144 296.645C639.319 297.796 636.179 298.791 632.725 299.628C629.271 300.465 625.032 300.884 620.009 300.884C613.624 300.884 608.339 300.047 604.152 298.372C599.966 296.593 596.617 294.186 594.105 291.15C591.593 288.011 589.814 284.243 588.767 279.847C587.825 275.451 587.354 270.584 587.354 265.247V195.856ZM657.111 195.856L680.503 192.088V216.422H708.605V235.889H680.503V264.933C680.503 269.852 681.34 273.777 683.015 276.707C684.794 279.638 688.3 281.103 693.533 281.103C696.045 281.103 698.61 280.894 701.226 280.475C703.947 279.952 706.407 279.271 708.605 278.434L711.902 296.645C709.076 297.796 705.936 298.791 702.482 299.628C699.028 300.465 694.789 300.884 689.766 300.884C683.381 300.884 678.096 300.047 673.909 298.372C669.723 296.593 666.374 294.186 663.862 291.15C661.35 288.011 659.571 284.243 658.524 279.847C657.582 275.451 657.111 270.584 657.111 265.247V195.856ZM720.662 258.339C720.662 251.013 721.761 244.628 723.959 239.186C726.262 233.639 729.245 229.034 732.908 225.371C736.571 221.708 740.757 218.934 745.467 217.05C750.282 215.166 755.201 214.224 760.224 214.224C771.946 214.224 781.209 217.835 788.012 225.057C794.815 232.174 798.216 242.692 798.216 256.612C798.216 257.973 798.164 259.49 798.059 261.165C797.955 262.735 797.85 264.148 797.745 265.404H744.682C745.205 270.218 747.456 274.038 751.433 276.864C755.41 279.69 760.748 281.103 767.446 281.103C771.737 281.103 775.924 280.737 780.005 280.004C784.192 279.167 787.593 278.172 790.21 277.021L793.35 296.017C792.094 296.645 790.419 297.273 788.326 297.901C786.233 298.529 783.878 299.052 781.261 299.471C778.749 299.994 776.028 300.413 773.098 300.727C770.167 301.041 767.237 301.198 764.306 301.198C756.875 301.198 750.386 300.099 744.839 297.901C739.397 295.703 734.844 292.72 731.181 288.953C727.622 285.08 724.954 280.527 723.174 275.294C721.5 270.061 720.662 264.409 720.662 258.339ZM775.61 249.391C775.505 247.402 775.139 245.466 774.511 243.582C773.987 241.698 773.098 240.023 771.842 238.558C770.691 237.093 769.173 235.889 767.289 234.947C765.51 234.005 763.26 233.534 760.538 233.534C757.922 233.534 755.672 234.005 753.788 234.947C751.904 235.785 750.334 236.936 749.078 238.401C747.822 239.866 746.828 241.593 746.095 243.582C745.467 245.466 744.996 247.402 744.682 249.391H775.61ZM866.035 237.145C863.941 236.622 861.482 236.099 858.656 235.575C855.83 234.947 852.795 234.633 849.55 234.633C848.085 234.633 846.306 234.79 844.213 235.104C842.224 235.314 840.706 235.575 839.66 235.889V299H816.268V220.818C820.455 219.353 825.374 217.992 831.025 216.736C836.782 215.376 843.166 214.695 850.178 214.695C851.434 214.695 852.952 214.8 854.731 215.009C856.51 215.114 858.29 215.323 860.069 215.637C861.848 215.847 863.627 216.161 865.407 216.579C867.186 216.893 868.703 217.312 869.959 217.835L866.035 237.145ZM906.205 282.202C910.496 282.202 913.531 281.783 915.31 280.946C917.09 280.109 917.979 278.486 917.979 276.079C917.979 274.195 916.828 272.573 914.525 271.212C912.223 269.747 908.717 268.125 904.007 266.346C900.344 264.985 896.995 263.572 893.959 262.107C891.029 260.642 888.517 258.915 886.424 256.926C884.331 254.833 882.708 252.373 881.557 249.548C880.406 246.722 879.83 243.32 879.83 239.343C879.83 231.598 882.708 225.475 888.465 220.975C894.221 216.475 902.123 214.224 912.17 214.224C917.194 214.224 922.009 214.695 926.614 215.637C931.219 216.475 934.882 217.417 937.603 218.463L933.521 236.674C930.8 235.732 927.817 234.895 924.573 234.162C921.433 233.43 917.875 233.063 913.897 233.063C906.571 233.063 902.908 235.104 902.908 239.186C902.908 240.128 903.065 240.965 903.379 241.698C903.693 242.431 904.321 243.163 905.263 243.896C906.205 244.524 907.461 245.256 909.031 246.094C910.705 246.826 912.798 247.664 915.31 248.606C920.439 250.489 924.678 252.373 928.027 254.257C931.376 256.037 933.992 258.025 935.876 260.223C937.865 262.316 939.225 264.671 939.958 267.288C940.795 269.904 941.214 272.939 941.214 276.393C941.214 284.557 938.126 290.732 931.951 294.918C925.881 299.105 917.247 301.198 906.048 301.198C898.722 301.198 892.599 300.57 887.68 299.314C882.865 298.058 879.516 297.011 877.632 296.174L881.557 277.178C885.534 278.748 889.616 280.004 893.802 280.946C897.989 281.783 902.123 282.202 906.205 282.202ZM981.616 286.598C981.616 291.307 980.099 294.918 977.063 297.43C974.133 299.837 970.784 301.041 967.016 301.041C963.248 301.041 959.847 299.837 956.811 297.43C953.881 294.918 952.416 291.307 952.416 286.598C952.416 281.888 953.881 278.329 956.811 275.922C959.847 273.41 963.248 272.154 967.016 272.154C970.784 272.154 974.133 273.41 977.063 275.922C980.099 278.329 981.616 281.888 981.616 286.598Z" fill="#BF1013"/>
</svg>
